<?xml version="1.0" encoding="UTF-8" standalone="no"?>
<svg width="30px" height="25px" viewBox="0 0 30 25" version="1.1" xmlns="http://www.w3.org/2000/svg" xmlns:xlink="http://www.w3.org/1999/xlink" xmlns:sketch="http://www.bohemiancoding.com/sketch/ns">
    <title>dribble</title>
    <description>Created with Sketch (http://www.bohemiancoding.com/sketch)</description>
    <defs>
        <rect id="path-1" x="-961" y="-721" width="1440" height="1974"></rect>
    </defs>
    <g id="Website---Community-Page" stroke="none" stroke-width="1" fill="none" fill-rule="evenodd" sketch:type="MSPage">
        <mask id="mask-2" sketch:name="max-width" fill="white">
            <use xlink:href="#path-1"></use>
        </mask>
        <use id="max-width" stroke="#979797" sketch:type="MSShapeGroup" xlink:href="#path-1"></use>
        <g id="dribble-icon" sketch:type="MSLayerGroup" mask="url(#mask-2)" transform="translate(2.000000, -1.000000)">
            <ellipse id="Oval-1" fill="#E84F89" sketch:type="MSShapeGroup" cx="13.5" cy="13.02" rx="13.5" ry="13.02"></ellipse>
            <path d="M4.71211626,20.0386625 C3.07464177,18.1337604 2.09032258,15.6877432 2.09032258,13.02 C2.09032258,12.9100736 2.09199387,12.8005237 2.09531328,12.6913725 L2.09531328,12.6913725 C2.89545399,12.6919252 3.86019967,12.6697393 4.93819157,12.6122818 C6.9303348,12.5060995 8.8981065,12.2979893 10.747186,11.9626076 C11.8394551,11.7644943 12.8650171,11.5260118 13.8137557,11.2433119 C13.8932272,11.4019882 13.9661412,11.5535673 14.0322519,11.6977206 C14.2180625,12.1028775 14.4147171,12.5731784 14.6206643,13.1030431 C14.2056048,13.2240054 13.788535,13.358566 13.3698626,13.5073293 C11.1518289,14.2954448 9.25574595,15.4076446 7.66174231,16.7605135 C6.4851552,17.7591111 5.53920869,18.8307819 4.80163541,19.9065157 C4.77119966,19.9509056 4.74136141,19.9949589 4.71211626,20.0386625 Z M6.36754126,21.6094174 C8.32109184,23.1202492 10.8011138,24.024 13.5,24.024 C15.0144131,24.024 16.4599142,23.7394437 17.7821564,23.2227457 C17.6593593,22.7656094 17.5216338,22.2620401 17.3711662,21.7229951 C16.9036032,20.0479659 16.4092659,18.3733214 15.9110885,16.8129457 C15.7270355,16.2364605 15.5459421,15.6867626 15.3685051,15.1671057 C14.965289,15.282384 14.5598601,15.4120043 14.152718,15.5566707 C12.2034188,16.2492989 10.5472316,17.2207813 9.1577575,18.4000611 C8.13854881,19.2650878 7.32200497,20.1901573 6.69051993,21.1111638 C6.57116977,21.2852333 6.46363043,21.4517698 6.36754126,21.6094174 Z M24.9040756,12.6718594 C24.8238292,10.1816223 23.8856976,7.89984704 22.365182,6.09223883 L22.365182,6.09223883 C22.3230215,6.13697539 22.2798889,6.18219831 22.2357819,6.22788303 C21.436561,7.05569236 20.470511,7.88008691 19.3326978,8.64816494 C18.2957552,9.34815053 17.1670298,9.965682 15.945408,10.4807536 C16.000987,10.594896 16.0536156,10.7060918 16.103232,10.8142794 C16.3367299,11.3234179 16.5806834,11.9136357 16.8346712,12.5794794 C19.5958093,12.0763405 22.2304304,12.1504437 24.6107659,12.6123836 C24.7111643,12.6318674 24.8089508,12.6517181 24.9040756,12.6718594 Z M24.7475629,14.8788873 C24.2121966,17.9137213 22.3883884,20.5252102 19.8380709,22.1714012 C19.7504799,21.8497679 19.6568689,21.510057 19.5578288,21.1552492 C19.0837734,19.4569616 18.5823434,17.7582894 18.0753295,16.1702361 C17.9088397,15.6487618 17.7444642,15.147937 17.5825678,14.6697664 C19.9225532,14.2855723 22.1514582,14.3628935 24.1640549,14.7534682 C24.3735466,14.7941232 24.5683022,14.8362769 24.7475629,14.8788873 Z M2.38931976,10.506525 C3.18375321,7.22728488 5.49866611,4.51196773 8.57803574,3.08971552 L8.57803574,3.08971552 C8.75324841,3.33280335 8.94198005,3.5968011 9.14149893,3.87846748 C9.89821268,4.9467415 10.6548006,6.04925006 11.3597597,7.12462061 C11.5996293,7.49052657 11.829788,7.84771145 12.0489866,8.19466587 C12.2872637,8.57181815 12.5106598,8.93379607 12.7180067,9.27903763 C11.9747991,9.48378967 11.1758961,9.66256261 10.3286482,9.81623447 C8.58621485,10.132273 6.71361144,10.3303182 4.81323254,10.4316094 C3.90880686,10.4798158 3.08898417,10.5020644 2.38931976,10.506525 L2.38931976,10.506525 Z M20.7691156,4.53794473 C18.7951839,2.96266475 16.2622204,2.016 13.5,2.016 C12.5647438,2.016 11.6557702,2.12452773 10.7858798,2.3292376 L10.7858798,2.3292376 C10.8593804,2.43232409 10.9345792,2.53812949 11.0113304,2.64648126 C11.7821418,3.73465738 12.5530791,4.85807611 13.2738102,5.95750569 C13.5201552,6.3332894 13.7568799,6.70066427 13.9828,7.05825757 C14.3121481,7.57955999 14.6152562,8.07466242 14.8899429,8.54138434 C16.028339,8.07334821 17.0758849,7.50579174 18.0341651,6.85890706 C19.0360855,6.18256309 19.8835533,5.45936264 20.5784811,4.73957697 C20.6448687,4.67081472 20.7084117,4.60355873 20.7691156,4.53794473 L20.7691156,4.53794473 Z M27,13.02 C27,5.8292522 20.9558445,0 13.5,0 C6.04415551,0 0,5.8292522 0,13.02 C0,20.2107478 6.04415551,26.04 13.5,26.04 C20.9558445,26.04 27,20.2107478 27,13.02 Z" id="ball-outline" fill="#C12762" sketch:type="MSShapeGroup"></path>
        </g>
    </g>
</svg>