<?xml version="1.0" encoding="UTF-8" standalone="no"?>
<svg width="350px" height="350px" viewBox="0 0 350 350" version="1.1" xmlns="http://www.w3.org/2000/svg" xmlns:xlink="http://www.w3.org/1999/xlink" xmlns:sketch="http://www.bohemiancoding.com/sketch/ns">
    <title>explanation-modifiers@2x</title>
    <description>Created with Sketch (http://www.bohemiancoding.com/sketch)</description>
    <defs>
        <rect id="path-1" x="-764" y="-1803" width="1440" height="4890"></rect>
    </defs>
    <g id="Website---homepage" stroke="none" stroke-width="1" fill="none" fill-rule="evenodd" sketch:type="MSPage">
        <mask id="mask-2" sketch:name="maxwidth" fill="white">
            <use xlink:href="#path-1"></use>
        </mask>
        <use id="maxwidth" stroke="#979797" sketch:type="MSShapeGroup" xlink:href="#path-1"></use>
        <ellipse id="Oval-9-copy" fill="#7ECECA" sketch:type="MSShapeGroup" mask="url(#mask-2)" cx="165" cy="33.5" rx="70" ry="22.5"></ellipse>
        <path d="M200,339 C227.614239,339 250,331.164984 250,321.5 C250,311.835016 227.614239,304 200,304 C172.385761,304 150,311.835016 150,321.5 C150,331.164984 172.385761,339 200,339 Z" id="Oval-19" fill="#5AC7AA" sketch:type="MSShapeGroup" mask="url(#mask-2)"></path>
        <path d="M196,336.999999 C207.994881,337.141116 241.071066,326.11231 241.5,320 C241.928934,313.88769 219.685147,308.841098 201.606963,308.5 C183.528778,308.158903 165.488032,314.997847 163,319.5 C160.511969,324.002154 177.88165,330.640621 192,331.499999 C206.118349,332.359378 227.000001,325.500001 227,319.5 C226.999998,313.5 183.499999,310.000001 180.5,319.5 C177.5,328.999999 199,321 199,321" id="Path-40" stroke="#9ADCB9" stroke-width="2" stroke-linecap="round" stroke-linejoin="round" sketch:type="MSShapeGroup" mask="url(#mask-2)"></path>
        <path d="M153,39 C153,39 223.94387,88.3853724 188.5,136.5 C153.056132,184.614633 71.097756,155.537527 49.5,179.5 C27.9022453,203.462476 220.000003,196.5 219.999999,254 C219.999993,311.5 202,313 202,313" id="Path-27" stroke="#5391FD" stroke-width="3" sketch:type="MSShapeGroup" mask="url(#mask-2)"></path>
        <path d="M166.5,38.5 C166.5,38.5 123.231654,58.8902416 144,103 C164.768346,147.109756 219.197781,123.473494 223,158.5 C226.802219,193.526506 164.520751,223.236072 160.5,255 C156.47925,286.763928 223.000002,282.5 223.000002,320" id="Path-28" stroke="#E8263E" stroke-width="3" sketch:type="MSShapeGroup" mask="url(#mask-2)"></path>
        <path d="M159.5,40 C159.5,40 148.642606,110.387601 172.5,158.5 C196.357394,206.612401 246,164.5 260.5,222 C274.999999,279.500001 149.499999,278.500007 190,311" id="Path-29" stroke="#F5A623" stroke-width="3" sketch:type="MSShapeGroup" mask="url(#mask-2)"></path>
        <g id="robot-arm" sketch:type="MSLayerGroup" mask="url(#mask-2)" transform="translate(230.000000, 87.000000)">
            <rect id="Rectangle-10" fill="#4A4A4A" sketch:type="MSShapeGroup" x="83" y="0" width="14" height="24" rx="5"></rect>
            <circle id="Oval-11" fill="#4A4A4A" sketch:type="MSShapeGroup" cx="82" cy="13" r="5"></circle>
            <rect id="Rectangle-11" fill="#4A4A4A" sketch:type="MSShapeGroup" transform="translate(61.096874, 24.180808) rotate(-29.000000) translate(-61.096874, -24.180808) " x="41.5161038" y="22.1808078" width="39.1615411" height="4"></rect>
            <rect id="Rectangle-11-copy" fill="#4A4A4A" sketch:type="MSShapeGroup" transform="translate(25.484129, 40.095832) rotate(-17.000000) translate(-25.484129, -40.095832) " x="9.61430421" y="38.0958321" width="31.7396489" height="4"></rect>
            <circle id="Oval-12" fill="#4A4A4A" sketch:type="MSShapeGroup" cx="43" cy="34" r="4"></circle>
            <path d="M85.5,28 L94.5,28" id="Line" stroke="#5AC7AA" stroke-width="2" stroke-linecap="round" sketch:type="MSShapeGroup"></path>
            <path d="M87.5,32 L93,32" id="Line-copy" stroke="#9ADCB9" stroke-width="2" stroke-linecap="round" sketch:type="MSShapeGroup"></path>
            <circle id="Oval-13" fill="#4A4A4A" sketch:type="MSShapeGroup" cx="10" cy="45" r="4"></circle>
            <path d="M9,42 C9,42 7.5,38.0000001 3,40 C-1.50000042,41.9999996 0.5,45 0.5,45" id="Path-32" stroke="#4A4A4A" stroke-width="2" sketch:type="MSShapeGroup"></path>
            <path d="M12,51 C12,51 10.5,47.0000001 6,49 C1.49999958,50.9999996 3.5,54 3.5,54" id="Path-32-copy" stroke="#4A4A4A" stroke-width="2" sketch:type="MSShapeGroup" transform="translate(7.500000, 51.000000) scale(1, -1) rotate(46.000000) translate(-7.500000, -51.000000) "></path>
        </g>
        <g id="robot-arm-copy" sketch:type="MSLayerGroup" mask="url(#mask-2)" transform="translate(38.000000, 232.500000) scale(-1, 1) translate(-38.000000, -232.500000) translate(8.000000, 196.000000)">
            <rect id="Rectangle-10" fill="#4A4A4A" sketch:type="MSShapeGroup" x="46" y="40" width="14" height="24" rx="5"></rect>
            <circle id="Oval-11" fill="#4A4A4A" sketch:type="MSShapeGroup" cx="45" cy="53" r="5"></circle>
            <rect id="Rectangle-11" fill="#4A4A4A" sketch:type="MSShapeGroup" transform="translate(23.580771, 47.362527) rotate(197.000000) translate(-23.580771, -47.362527) " x="4" y="45.3625272" width="39.1615411" height="4"></rect>
            <rect id="Rectangle-11-copy" fill="#4A4A4A" sketch:type="MSShapeGroup" transform="translate(11.869824, 26.000000) rotate(-60.000000) translate(-11.869824, -26.000000) " x="-4" y="24" width="31.7396489" height="4"></rect>
            <circle id="Oval-12" fill="#4A4A4A" sketch:type="MSShapeGroup" cx="4" cy="41" r="4"></circle>
            <path d="M48.5,68 L57.5,68" id="Line" stroke="#5AC7AA" stroke-width="2" stroke-linecap="round" sketch:type="MSShapeGroup"></path>
            <path d="M50.5,72 L56,72" id="Line-copy" stroke="#9ADCB9" stroke-width="2" stroke-linecap="round" sketch:type="MSShapeGroup"></path>
            <g id="hand" transform="translate(17.000000, 7.500000) rotate(97.000000) translate(-17.000000, -7.500000) translate(10.000000, -1.000000)" sketch:type="MSShapeGroup">
                <circle id="Oval-13" fill="#4A4A4A" cx="10" cy="6" r="4"></circle>
                <path d="M9,3 C9,3 7.5,-0.999999948 3,1 C-1.50000042,2.99999961 0.5,6 0.5,6" id="Path-32" stroke="#4A4A4A" stroke-width="2"></path>
                <path d="M12,12 C12,12 10.5,8.00000005 6,10 C1.49999958,11.9999996 3.5,15 3.5,15" id="Path-32-copy" stroke="#4A4A4A" stroke-width="2" transform="translate(7.500000, 12.000000) scale(1, -1) rotate(46.000000) translate(-7.500000, -12.000000) "></path>
            </g>
        </g>
        <path d="M334,163.5 C334,163.5 328.004175,146.738177 305,143 C281.995825,139.261822 271.784631,152.570813 254,150.5 C236.215369,148.429187 232,134.5 232,134.5" id="Path-34" stroke="#9ADCB9" stroke-width="2" sketch:type="MSShapeGroup" mask="url(#mask-2)"></path>
        <ellipse id="Oval-14" fill="#5AC7AA" sketch:type="MSShapeGroup" mask="url(#mask-2)" cx="334" cy="163" rx="2" ry="6"></ellipse>
        <path d="M47.5,271 C47.5,271 84.7890214,252.421428 83.5,238.5 C82.2109788,224.578571 46.6877865,223.498289 42.5,217 C38.3122137,210.501711 54.5,193.5 54.5,193.5" id="Path-39" stroke="#9ADCB9" stroke-width="2" sketch:type="MSShapeGroup" mask="url(#mask-2)"></path>
        <ellipse id="Oval-18" fill="#5AC7AA" sketch:type="MSShapeGroup" mask="url(#mask-2)" cx="49" cy="271" rx="7" ry="3"></ellipse>
    </g>
</svg>