<?xml version="1.0" encoding="UTF-8" standalone="no"?>
<svg width="350px" height="350px" viewBox="0 0 350 350" version="1.1" xmlns="http://www.w3.org/2000/svg" xmlns:xlink="http://www.w3.org/1999/xlink" xmlns:sketch="http://www.bohemiancoding.com/sketch/ns">
    <title>explanation-threads@2x</title>
    <description>Created with Sketch (http://www.bohemiancoding.com/sketch)</description>
    <defs>
        <rect id="path-1" x="-159" y="-1376" width="1440" height="4890"></rect>
        <radialGradient cx="50.0913033%" cy="49.7776118%" fx="50.0913033%" fy="49.7776118%" r="600.611687%" id="radialGradient-3">
            <stop stop-color="#0DA960" offset="0%"></stop>
            <stop stop-color="#069B5A" offset="100%"></stop>
        </radialGradient>
        <radialGradient cx="49.6118668%" cy="49.324739%" fx="49.6118668%" fy="49.324739%" r="362.094331%" id="radialGradient-4">
            <stop stop-color="#4387FD" offset="0%"></stop>
            <stop stop-color="#3078F0" offset="65%"></stop>
            <stop stop-color="#2B72EA" offset="90.99%"></stop>
            <stop stop-color="#286EE6" offset="100%"></stop>
        </radialGradient>
        <radialGradient cx="49.9517538%" cy="49.9570016%" fx="49.9517538%" fy="49.9570016%" r="510.323143%" id="radialGradient-5">
            <stop stop-color="#FFD24D" offset="0%"></stop>
            <stop stop-color="#F6C338" offset="100%"></stop>
        </radialGradient>
        <radialGradient cx="49.9983317%" cy="50.0001881%" fx="49.9983317%" fy="50.0001881%" r="450.052929%" id="radialGradient-6" stop-color="#FFFFFF">
            <stop stop-opacity="0.1" offset="0%"></stop>
            <stop stop-opacity="0.091" offset="8.96%"></stop>
            <stop stop-opacity="0" offset="100%"></stop>
        </radialGradient>
    </defs>
    <g id="Website---homepage" stroke="none" stroke-width="1" fill="none" fill-rule="evenodd" sketch:type="MSPage">
        <mask id="mask-2" sketch:name="maxwidth" fill="white">
            <use xlink:href="#path-1"></use>
        </mask>
        <use id="maxwidth" stroke="#979797" sketch:type="MSShapeGroup" xlink:href="#path-1"></use>
        <g id="youtube-logo" sketch:type="MSLayerGroup" mask="url(#mask-2)" transform="translate(60.000000, 22.000000)">
            <rect id="Rectangle-1" fill="#E8263E" sketch:type="MSShapeGroup" x="0" y="0" width="110" height="65" rx="10"></rect>
            <path d="M47,50 L47,15 L72,32.5 L47,50 Z" id="Triangle-1" fill="#FFFFFF" sketch:type="MSShapeGroup"></path>
        </g>
        <g id="soundcloud_logo" sketch:type="MSLayerGroup" mask="url(#mask-2)" transform="translate(207.000000, 101.000000)" fill="#F6A623">
            <path d="M63,1.00000004 C85.5,-4.50000016 100,10.1928806 100,24 C100,24.4650842 99.9855222,24.9272021 99.9569403,25.386026 C102.2606,24.49528 104.813423,24 107.5,24 C117.717268,24 126,31.1634436 126,40 C126,48.399816 118.515772,55.287817 109,55.9481672 L63,56 L63,47.8692253 L63,1.00000004 Z" id="cloudhalf1" sketch:type="MSShapeGroup"></path>
            <ellipse id="Oval-1" sketch:type="MSShapeGroup" cx="2" cy="39.5" rx="2" ry="9.5"></ellipse>
            <ellipse id="Oval-1-copy" sketch:type="MSShapeGroup" cx="10" cy="39.5" rx="2" ry="15.5"></ellipse>
            <ellipse id="Oval-1-copy-2" sketch:type="MSShapeGroup" cx="18" cy="41.5" rx="2" ry="15.5"></ellipse>
            <ellipse id="Oval-1-copy-3" sketch:type="MSShapeGroup" cx="26" cy="37" rx="2" ry="20"></ellipse>
            <path d="M34,57 C35.1045696,57 36,46.9264075 36,34.5 C36,22.0735925 35.1045696,12 34,12 C32.8954304,12 32,22.0735925 32,34.5 C32,46.9264075 32.8954304,57 34,57 Z" id="Oval-1-copy-4" sketch:type="MSShapeGroup"></path>
            <path d="M42,57 C43.1045696,57 44,46.9264075 44,34.5 C44,22.0735925 43.1045696,12 42,12 C40.8954304,12 40,22.0735925 40,34.5 C40,46.9264075 40.8954304,57 42,57 Z" id="Oval-1-copy-5" sketch:type="MSShapeGroup"></path>
            <path d="M50,57 C51.1045696,57 52,47.3741227 52,35.5 C52,23.6258773 51.1045696,14 50,14 C48.8954304,14 48,23.6258773 48,35.5 C48,47.3741227 48.8954304,57 50,57 Z" id="Oval-1-copy-6" sketch:type="MSShapeGroup"></path>
            <path d="M58,57 C59.1045696,57 60,45.5832618 60,31.5 C60,17.4167382 59.1045696,6 58,6 C56.8954304,6 56,17.4167382 56,31.5 C56,45.5832618 56.8954304,57 58,57 Z" id="Oval-1-copy-7" sketch:type="MSShapeGroup"></path>
        </g>
        <g id="Group" sketch:type="MSLayerGroup" mask="url(#mask-2)" transform="translate(25.000000, 143.000000)">
            <path d="M15.65625,79 L0,51.5117619 L30,0 L45,26.3333333 L15.65625,79 Z" id="Shape" fill="url(#radialGradient-3)" sketch:type="MSShapeGroup"></path>
            <path d="M16,79 L30.2774275,53 L90,53 L74.4161412,79 L16,79 Z" id="Shape" fill="url(#radialGradient-4)" sketch:type="MSShapeGroup"></path>
            <path d="M90,53 L60,53 L30,0 L60,0 L90,53 Z" id="Shape" fill="url(#radialGradient-5)" sketch:type="MSShapeGroup"></path>
            <path d="M45,52.4 L30.1757188,52.4 L37.5878594,41 L16,79 L45,52.4 Z" id="Shape" opacity="0.08" fill="#231F20" sketch:type="MSShapeGroup"></path>
            <path d="M60.6,53 L91,53 L53,38 L60.6,53 Z" id="Shape" opacity="0.08" fill="#231F20" sketch:type="MSShapeGroup"></path>
            <path d="M38.0076628,39 L45,27.1402857 L29,0 L38.0076628,39 Z" id="Shape" opacity="0.08" fill="#231F20" sketch:type="MSShapeGroup"></path>
            <path d="M90,51.5117619 L60.65625,0 L29.34,0 L0,51.5117619 L15.65625,79 L74.34375,79 L90,51.5117619 L90,51.5117619 Z M44.5,27 L58,51 L31,51 L44.5,27 L44.5,27 Z" id="Shape" fill="url(#radialGradient-6)" sketch:type="MSShapeGroup"></path>
        </g>
        <ellipse id="Oval-9" fill="#7ECECA" sketch:type="MSShapeGroup" mask="url(#mask-2)" cx="204" cy="303.5" rx="70" ry="22.5"></ellipse>
        <path d="M115,77 C115,77 68.6699751,98.2260827 113.5,140.5 C158.330025,182.773917 211.804953,151.592238 229,184.5 C246.195046,217.407763 200.5,307 200.5,307" id="Path-24" stroke="#E8263E" stroke-width="3" sketch:type="MSShapeGroup" mask="url(#mask-2)"></path>
        <path d="M283,151.5 C283,151.5 171.5,159 198.5,192.5 C225.5,225.999999 213.499999,213.25 244.5,255 C275.500001,296.750001 188,303 188,303" id="Path-25" stroke="#F5A623" stroke-width="3" sketch:type="MSShapeGroup" mask="url(#mask-2)"></path>
        <path d="M70,216 C70,216 24.4860973,246.084368 30.5,259.5 C36.5139034,272.915632 47.1549476,292.902371 96,274 C144.845053,255.09763 146.482146,192.994046 176.5,203 C206.517854,213.005954 204,310 204,310" id="Path-26" stroke="#5290FC" stroke-width="3" sketch:type="MSShapeGroup" mask="url(#mask-2)"></path>
    </g>
</svg>