<?xml version="1.0" encoding="UTF-8" standalone="no"?>
<svg width="135px" height="65px" viewBox="0 0 135 65" version="1.1" xmlns="http://www.w3.org/2000/svg" xmlns:xlink="http://www.w3.org/1999/xlink" xmlns:sketch="http://www.bohemiancoding.com/sketch/ns">
    <title>soundcloud</title>
    <description>Created with Sketch (http://www.bohemiancoding.com/sketch)</description>
    <defs></defs>
    <g id="Page-6" stroke="none" stroke-width="1" fill="none" fill-rule="evenodd" sketch:type="MSPage">
        <g id="soundcloud_logo" sketch:type="MSLayerGroup" transform="translate(6.000000, 4.000000)" fill="#F6A623">
            <path d="M63,1.00000004 C85.5,-4.50000016 100,10.1928806 100,24 C100,24.4650842 99.9855222,24.9272021 99.9569403,25.386026 C102.2606,24.49528 104.813423,24 107.5,24 C117.717268,24 126,31.1634436 126,40 C126,48.399816 118.515772,55.287817 109,55.9481672 L63,56 L63,47.8692253 L63,1.00000004 Z" id="cloudhalf1" sketch:type="MSShapeGroup"></path>
            <ellipse id="Oval-1" sketch:type="MSShapeGroup" cx="2" cy="39.5" rx="2" ry="9.5"></ellipse>
            <ellipse id="Oval-1-copy" sketch:type="MSShapeGroup" cx="10" cy="39.5" rx="2" ry="15.5"></ellipse>
            <ellipse id="Oval-1-copy-2" sketch:type="MSShapeGroup" cx="18" cy="41.5" rx="2" ry="15.5"></ellipse>
            <ellipse id="Oval-1-copy-3" sketch:type="MSShapeGroup" cx="26" cy="37" rx="2" ry="20"></ellipse>
            <path d="M34,57 C35.1045696,57 36,46.9264075 36,34.5 C36,22.0735925 35.1045696,12 34,12 C32.8954304,12 32,22.0735925 32,34.5 C32,46.9264075 32.8954304,57 34,57 Z" id="Oval-1-copy-4" sketch:type="MSShapeGroup"></path>
            <path d="M42,57 C43.1045696,57 44,46.9264075 44,34.5 C44,22.0735925 43.1045696,12 42,12 C40.8954304,12 40,22.0735925 40,34.5 C40,46.9264075 40.8954304,57 42,57 Z" id="Oval-1-copy-5" sketch:type="MSShapeGroup"></path>
            <path d="M50,57 C51.1045696,57 52,47.3741227 52,35.5 C52,23.6258773 51.1045696,14 50,14 C48.8954304,14 48,23.6258773 48,35.5 C48,47.3741227 48.8954304,57 50,57 Z" id="Oval-1-copy-6" sketch:type="MSShapeGroup"></path>
            <path d="M58,57 C59.1045696,57 60,45.5832618 60,31.5 C60,17.4167382 59.1045696,6 58,6 C56.8954304,6 56,17.4167382 56,31.5 C56,45.5832618 56.8954304,57 58,57 Z" id="Oval-1-copy-7" sketch:type="MSShapeGroup"></path>
        </g>
    </g>
</svg>